<?xml version="1.0" encoding="utf-8"?>
<!-- Generator: Adobe Illustrator 17.1.0, SVG Export Plug-In . SVG Version: 6.00 Build 0)  -->
<!DOCTYPE svg PUBLIC "-//W3C//DTD SVG 1.1//EN" "http://www.w3.org/Graphics/SVG/1.1/DTD/svg11.dtd">
<svg version="1.1" xmlns="http://www.w3.org/2000/svg" xmlns:xlink="http://www.w3.org/1999/xlink" x="0px" y="0px"
	 viewBox="0 0 200 200" enable-background="new 0 0 200 200" xml:space="preserve">
<g id="Circle">
	<g>
		<linearGradient id="SVGID_1_" gradientUnits="userSpaceOnUse" x1="100" y1="1" x2="100" y2="199">
			<stop  offset="0" style="stop-color:#FEE686"/>
			<stop  offset="1" style="stop-color:#986929"/>
		</linearGradient>
		<path opacity="0.75" fill="url(#SVGID_1_)" d="M100,1C45.3,1,1,45.3,1,100c0,54.7,44.3,99,99,99c54.7,0,99-44.3,99-99
			C199,45.3,154.7,1,100,1z M100,190c-49.7,0-90-40.3-90-90s40.3-90,90-90s90,40.3,90,90S149.7,190,100,190z"/>
	</g>
</g>
<g id="Prev" display="none">
	<polyline display="inline" opacity="0.75" fill="none" stroke="#C0974E" stroke-width="10" stroke-miterlimit="10" points="
		126.4,46.5 73.1,99.7 126.9,153.5 	"/>
</g>
<g id="Next_1_" display="none">
	<polyline display="inline" opacity="0.75" fill="none" stroke="#C0974E" stroke-width="10" stroke-miterlimit="10" points="
		73.6,153.5 126.9,100.3 73.1,46.5 	"/>
</g>
<g id="Enlarge" display="none">
	<path display="inline" opacity="0.75" fill="none" stroke="#C0974E" stroke-width="10" stroke-miterlimit="10" d="M100,43v114
		 M43,100h114"/>
</g>
<g id="Reduce" display="none">
	
		<line display="inline" opacity="0.75" fill="#C0974E" stroke="#C0974E" stroke-width="10" stroke-miterlimit="10" x1="43" y1="100" x2="157" y2="100"/>
</g>
<g id="Opacity_Up" display="none">
	<g display="inline">
		<rect x="23.9" y="84.7" opacity="0.25" fill="#C0974E" width="30.7" height="30.7"/>
		<rect x="109.7" y="68.8" opacity="0.75" fill="#C0974E" width="62.4" height="62.4"/>
		<rect x="60.5" y="78.1" opacity="0.5" fill="#C0974E" width="43.8" height="43.8"/>
	</g>
</g>
<g id="Opacity_Down" display="none">
	<rect x="141.4" y="84.7" display="inline" opacity="0.75" fill="#C0974E" width="30.7" height="30.7"/>
	<rect x="23.9" y="68.8" display="inline" opacity="0.25" fill="#C0974E" width="62.4" height="62.4"/>
	<rect x="91.6" y="78.1" display="inline" opacity="0.5" fill="#C0974E" width="43.8" height="43.8"/>
</g>
<g id="Light_Text" display="none">
	<g display="inline" opacity="0.45">
		<path fill="#C0974E" d="M133.9,65.3c-7.7-7.9-9.8-7.9-14.5-7.9c-8.4,0-13.4,0.6-13.4,8.4v64c0,9.3,3,12.7,9.6,12.7h4.4v3.2H79.4
			v-3.2h4.2c6.7,0,9.9-3.4,9.9-12.7v-64c0-5.6-2.5-8.4-9.6-8.4c-10.5,0-11.3,0.9-22.8,12.8c-1.5,1.5-3.3,3.3-5.1,5.6l-2.5-1.5
			l9.1-19.9h74.9l9.1,19.9l-2.7,1.5c-3.3-3.8-5.1-5.6-5.6-6.1L133.9,65.3z"/>
	</g>
</g>
<g id="Dark_Text" display="none">
	<g display="inline">
		<path fill="#C0974E" d="M133.9,65.3c-7.7-7.9-9.8-7.9-14.5-7.9c-8.4,0-13.4,0.6-13.4,8.4v64c0,9.3,3,12.7,9.6,12.7h4.4v3.2H79.4
			v-3.2h4.2c6.7,0,9.9-3.4,9.9-12.7v-64c0-5.6-2.5-8.4-9.6-8.4c-10.5,0-11.3,0.9-22.8,12.8c-1.5,1.5-3.3,3.3-5.1,5.6l-2.5-1.5
			l9.1-19.9h74.9l9.1,19.9l-2.7,1.5c-3.3-3.8-5.1-5.6-5.6-6.1L133.9,65.3z"/>
	</g>
</g>
<g id="Save" display="none">
	<g display="inline">
		<path fill="#C0974E" d="M50.7,81.7l3,7.9l-1.1,0.4c-1.9-2.1-7.1-7.6-13.6-7.6c-3.2,0-7.8,2.1-7.8,6.7c0,4.5,5.2,6.3,11.1,7.7
			c4.2,1,13,3,13,11.3c0,6.1-4.7,10.5-11.8,10.5c-1.4,0-3.1,0-7.1-1.6c-1.1-0.4-2.7-1-3.7-1c-0.8,0-1.9,0.3-2.2,1.7h-1.1l-2.3-10.4
			l1.2-0.3c3.9,6.6,10.4,10.2,15.3,10.2s8.8-3.3,8.8-7.3c0-4.6-3.7-6.4-10.7-8c-5.4-1.2-13.3-3.4-13.3-11.1c0-6,5.4-9.5,11.1-9.5
			c1.1,0,2.6,0,6,1.1c0.8,0.2,2,0.6,2.7,0.6c1.3,0,1.6-0.8,1.8-1.3H50.7z"/>
		<path fill="#C0974E" d="M78.7,81.6L91.7,113c1.3,3.1,3.7,3.2,4.9,3.2v1.2h-15v-1.2c2.2,0,5.2-0.1,5.2-2.2c0-0.8-0.3-1.6-0.4-2
			l-3-7H67.4l-1.7,4c-0.2,0.6-0.6,1.7-0.6,2.9c0,2.6,1.7,4.2,4.4,4.3v1.2H57.9v-1.2c1.3,0,3.7-0.3,5.5-4.7l12.5-29.1L78.7,81.6z
			 M75.6,86L68,103.7h14.9L75.6,86z"/>
		<path fill="#C0974E" d="M107.9,82.2v1.2h-1.3c-1.3,0-3.4,0.3-3.4,2.1c0,0.7,0.3,1.5,0.9,3.1l9.7,24.6l10.1-22.7
			c0.2-0.6,1.2-2.7,1.2-4.1c0-2.9-2.7-2.9-4.7-3v-1.2h11.5v1.2c-2,0.2-4.2,1.3-6.3,6l-12.9,29.1h-1.8L99.4,89.2
			c-1.7-4.2-3.1-5.5-6.4-5.8v-1.2H107.9z"/>
		<path fill="#C0974E" d="M167.7,82.2l4,7.1l-1,0.6c-0.6-0.7-2.2-2.5-4.4-3.9c-2.8-1.9-6-2.6-7.8-2.6h-7.7c-2.4,0-3.6,1.8-3.6,4.1
			v11.5h6.8c5.8,0,6.1-4.3,6.1-8h1.2v17h-1.2c-0.2-5.1-1-7.8-7-7.8h-5.9v11.6c0,2.1,0.7,4.5,3.6,4.5h6.9c1.9,0,6.7-0.6,10.1-3.4
			c2.4-2,3.7-3.9,4.4-4.9l0.9,0.6l-4.7,8.9h-31.6v-1.2h1.8c2.7,0,3.8-1.6,3.8-4.9V88.3c0-3.6-1.2-4.9-3.8-4.9h-1.8v-1.2H167.7z"/>
	</g>
</g>
<g id="Facebook" display="none">
	<path id="f" display="inline" fill="#C0974E" d="M109,158.1v-53h17.8l2.7-20.7H109V71.3c0-6,1.7-10.1,10.2-10.1l10.9,0V42.7
		c-1.9-0.3-8.4-0.8-15.9-0.8c-15.8,0-26.6,9.6-26.6,27.3v15.2H69.8v20.7h17.8v53H109z"/>
</g>
<g id="Twitter">
	<path fill="#C0974E" d="M148,70.2c-3.5,1.6-7.3,2.6-11.3,3.1c4.1-2.4,7.2-6.3,8.7-10.9c-3.8,2.3-8,3.9-12.5,4.8
		c-3.6-3.8-8.7-6.2-14.4-6.2c-10.9,0-19.7,8.8-19.7,19.7c0,1.5,0.2,3,0.5,4.5c-16.4-0.8-30.9-8.7-40.6-20.6C57,67.5,56,70.9,56,74.5
		c0,6.8,3.5,12.9,8.8,16.4c-3.2-0.1-6.3-1-8.9-2.5c0,0.1,0,0.2,0,0.2c0,9.5,6.8,17.5,15.8,19.3c-1.7,0.5-3.4,0.7-5.2,0.7
		c-1.3,0-2.5-0.1-3.7-0.4c2.5,7.8,9.8,13.5,18.4,13.7c-6.7,5.3-15.2,8.4-24.5,8.4c-1.6,0-3.2-0.1-4.7-0.3c8.7,5.6,19.1,8.9,30.2,8.9
		c36.2,0,56.1-30,56.1-56.1c0-0.9,0-1.7-0.1-2.5C142,77.6,145.4,74.2,148,70.2z"/>
</g>
<g id="New" display="none">
</g>
</svg>
