<?xml version="1.0" encoding="utf-8"?>
<!-- Generator: Adobe Illustrator 17.1.0, SVG Export Plug-In . SVG Version: 6.00 Build 0)  -->
<!DOCTYPE svg PUBLIC "-//W3C//DTD SVG 1.0//EN" "http://www.w3.org/TR/2001/REC-SVG-20010904/DTD/svg10.dtd">
<svg version="1.0" id="Layer_2" xmlns="http://www.w3.org/2000/svg" xmlns:xlink="http://www.w3.org/1999/xlink" x="0px" y="0px"
	 viewBox="0 0 122 150" enable-background="new 0 0 122 150" xml:space="preserve">
<path opacity="0.75" fill="#C0974E" stroke="#000000" stroke-width="6" stroke-miterlimit="10" d="M41.8,145h51
	c0,0,23.4-14.2,23.4-77.5c0,0-1.2-10.7-10.7-10.7s-10,11.6-10,16.6c0,0,4.7-26.5-10-24.6c0,0-10.7-1.9-10.7,17.7
	c0,0,3.9-26-10.4-23.8c0,0-11.5-2.3-11.5,22.6V13.7c0,0-0.8-9.8-9.8-9.8c0,0-10.9-0.6-10.9,10.9v59.6c0,0-9.2-16.2-19.2-10.5
	c0,0-11.1,4.6-6.1,15.4C6.8,79.3,33.7,138,41.8,145z"/>
</svg>
