<?xml version="1.0" encoding="utf-8"?>
<!-- Generator: Adobe Illustrator 17.1.0, SVG Export Plug-In . SVG Version: 6.00 Build 0)  -->
<!DOCTYPE svg PUBLIC "-//W3C//DTD SVG 1.1//EN" "http://www.w3.org/Graphics/SVG/1.1/DTD/svg11.dtd">
<svg version="1.1" id="Layer_1" xmlns="http://www.w3.org/2000/svg" xmlns:xlink="http://www.w3.org/1999/xlink" x="0px" y="0px"
	 viewBox="0 0 225.7 210.7" enable-background="new 0 0 225.7 210.7" xml:space="preserve">
<g>
	<rect x="14.1" y="12" fill="#FFFFFF" width="98.2" height="117.6"/>
	<path fill="#FFFFFF" stroke="#999999" stroke-width="12" stroke-miterlimit="10" d="M112.3,161.6c0,4.5-3.6,8.1-8.1,8.1h-82
		c-4.5,0-8.1-3.6-8.1-8.1V20.1c0-4.5,3.6-8.1,8.1-8.1h82c4.5,0,8.1,3.6,8.1,8.1V161.6z"/>
	<rect x="14.1" y="125.5" fill="#999999" width="98.2" height="42.8"/>
	<circle fill="#FFFFFF" cx="63.2" cy="149.9" r="11.7"/>
</g>
<g>
	<rect x="95.2" y="101.4" fill="#FFFFFF" width="117.6" height="98.2"/>
	<path fill="#FFFFFF" stroke="#000000" stroke-width="12" stroke-miterlimit="10" d="M63.2,199.7c-4.5,0-8.1-3.6-8.1-8.1v-82
		c0-4.5,3.6-8.1,8.1-8.1h141.5c4.5,0,8.1,3.6,8.1,8.1v82c0,4.5-3.6,8.1-8.1,8.1H63.2z"/>
	<rect x="56.5" y="101.4" width="42.8" height="98.2"/>
	<circle fill="#FFFFFF" cx="74.9" cy="150.6" r="11.7"/>
</g>
<g>
	<path fill="none" stroke="#999999" stroke-width="13" stroke-miterlimit="10" d="M122.4,46.2c0,0,35.9-1.6,35.9,34.9"/>
	<path fill="#999999" d="M176,75.1c-11.8,0-23.7,0-35.4,0l17.7,17.7L176,75.1z"/>
</g>
</svg>
