<?xml version="1.0" encoding="utf-8"?>
<!-- Generator: Adobe Illustrator 17.1.0, SVG Export Plug-In . SVG Version: 6.00 Build 0)  -->
<!DOCTYPE svg PUBLIC "-//W3C//DTD SVG 1.1//EN" "http://www.w3.org/Graphics/SVG/1.1/DTD/svg11.dtd">
<svg version="1.1" id="Layer_1" xmlns="http://www.w3.org/2000/svg" xmlns:xlink="http://www.w3.org/1999/xlink" x="0px" y="0px"
	 viewBox="0 44.7 200 20.5" enable-background="new 0 44.7 200 20.5" xml:space="preserve">
<g>
	<path fill="#303030" d="M10.1,45.7c-1.2,0-1.8,0.6-1.8,2.3v10.4c0,1.8-0.2,3.8-1.8,5.4C5.3,65,3.9,65.3,3,65.3
		c-1.5,0-2.9-0.8-2.9-1.8c0-0.4,0.3-1.1,1.1-1.1c0.7,0,1.1,0.4,1.7,1.1c0.5,0.6,0.8,0.9,1.5,0.9c1.3,0,1.7-2.2,1.7-4.5V48
		c0-1.7-0.6-2.3-1.8-2.3H3.6v-0.5h7.3v0.5H10.1z"/>
	<path fill="#303030" d="M29.1,45.2l1.9,3.3l-0.5,0.3c-0.3-0.3-1-1.2-2-1.8c-1.3-0.9-2.8-1.2-3.6-1.2h-3.6c-1.1,0-1.7,0.8-1.7,1.9
		V53h3.2c2.7,0,2.8-2,2.9-3.7h0.5v7.9h-0.5c-0.1-2.4-0.5-3.6-3.3-3.6h-2.7V59c0,1,0.3,2.1,1.7,2.1h3.2c0.9,0,3.1-0.3,4.7-1.6
		c1.1-0.9,1.7-1.8,2-2.3l0.4,0.3l-2.2,4.2H14.7v-0.6h0.8c1.3,0,1.8-0.7,1.8-2.3V48c0-1.7-0.6-2.3-1.8-2.3h-0.8v-0.5H29.1z"/>
	<path fill="#303030" d="M51.1,44.9l1.4,3.7L52,48.8c-0.9-1-3.3-3.5-6.4-3.5c-1.5,0-3.7,1-3.7,3.1c0,2.1,2.4,3,5.2,3.6
		c2,0.5,6.1,1.4,6.1,5.3c0,2.9-2.2,4.9-5.5,4.9c-0.6,0-1.4,0-3.3-0.7c-0.5-0.2-1.3-0.5-1.7-0.5c-0.4,0-0.9,0.2-1,0.8H41L40,56.9
		l0.5-0.1c1.8,3.1,4.9,4.8,7.2,4.8c2.3,0,4.1-1.5,4.1-3.4c0-2.1-1.7-3-5-3.8c-2.5-0.6-6.2-1.6-6.2-5.2c0-2.8,2.5-4.4,5.2-4.4
		c0.5,0,1.2,0,2.8,0.5c0.4,0.1,0.9,0.3,1.3,0.3c0.6,0,0.8-0.4,0.8-0.6H51.1z"/>
	<path fill="#303030" d="M71.5,55.5c0,4-2.2,6.7-6.7,6.7c-3.9,0-6.9-1.8-6.9-6.5V48c0-1.7-0.6-2.3-1.8-2.3h-0.8v-0.5h7.4v0.5h-0.8
		c-1.2,0-1.8,0.6-1.8,2.3v8c0,2.7,0.5,3.6,1.2,4.3c0.5,0.5,1.5,1.3,3.3,1.3c2.8,0,4-0.8,4.7-1.6c1.2-1.2,1.6-2.8,1.6-4.1v-7.6
		c0-1.7-1-2.6-2.7-2.6v-0.5h5.8v0.5c-2.2,0.1-2.6,1.7-2.6,2.5V55.5z"/>
	<path fill="#303030" d="M78.1,61.1c1.3,0,1.8-0.7,1.8-2.3V48c0-1.7-0.5-2.3-1.8-2.3h-0.8v-0.5h7.3v0.5h-0.8c-1.2,0-1.8,0.6-1.8,2.3
		v10.8c0,1.6,0.5,2.3,1.8,2.3h0.9v0.6h-7.5v-0.6H78.1z"/>
	<path fill="#303030" d="M98.8,44.9l1.4,3.7l-0.5,0.2c-0.9-1-3.3-3.5-6.4-3.5c-1.5,0-3.7,1-3.7,3.1c0,2.1,2.4,3,5.2,3.6
		c2,0.5,6.1,1.4,6.1,5.3c0,2.9-2.2,4.9-5.5,4.9c-0.6,0-1.4,0-3.3-0.7c-0.5-0.2-1.3-0.5-1.7-0.5c-0.4,0-0.9,0.2-1,0.8h-0.5l-1.1-4.9
		l0.5-0.1c1.8,3.1,4.9,4.8,7.2,4.8c2.3,0,4.1-1.5,4.1-3.4c0-2.1-1.7-3-5-3.8c-2.5-0.6-6.2-1.6-6.2-5.2c0-2.8,2.5-4.4,5.2-4.4
		c0.5,0,1.2,0,2.8,0.5c0.4,0.1,0.9,0.3,1.3,0.3c0.6,0,0.8-0.4,0.8-0.6H98.8z"/>
	<path fill="#303030" d="M115.4,58.8c0,1.6,0.5,2.3,1.8,2.3h0.8v0.6h-7.4v-0.6h0.8c1.2,0,1.8-0.6,1.8-2.3V48c0-1.8-0.6-2.3-1.8-2.3
		h-0.8v-0.5h8.3c2.8,0,4.2,0.6,5.1,1.5c0.7,0.7,1.3,1.6,1.3,3c0,2.9-2.9,4.5-6.7,4.5h-3.2V58.8z M115.4,53.6h1.6
		c3.2,0,5.7-0.1,5.7-4.1c0-3.8-2.4-3.8-5.3-3.8c-0.7,0-2,0-2,2.1V53.6z"/>
	<path fill="#303030" d="M133.5,58.8c0,1.6,0.5,2.3,1.7,2.3h0.8v0.6h-7.4v-0.6h0.8c1.2,0,1.8-0.6,1.8-2.3V48c0-1.8-0.6-2.3-1.8-2.3
		h-0.8v-0.5h9.7c1.6,0,5.1,0.8,5.1,3.9c0,3.2-3.5,4-4.8,4.3l3.6,4.6l0.3,0.4c1.2,1.5,2.1,2.7,4.1,2.7v0.6h-4.3l-6.5-8.1h-2.4V58.8z
		 M133.5,52.9h2.2c3.4,0,5-1.2,5-3.8c0-3.4-2.7-3.4-4.9-3.4c-1.1,0-2.3,0-2.3,1.4V52.9z"/>
	<path fill="#303030" d="M163.7,45.2l1.9,3.3l-0.5,0.3c-0.3-0.3-1-1.2-2-1.8c-1.3-0.9-2.8-1.2-3.6-1.2h-3.6c-1.1,0-1.7,0.8-1.7,1.9
		V53h3.2c2.7,0,2.8-2,2.9-3.7h0.5v7.9h-0.5c-0.1-2.4-0.5-3.6-3.3-3.6h-2.7V59c0,1,0.3,2.1,1.7,2.1h3.2c0.9,0,3.1-0.3,4.7-1.6
		c1.1-0.9,1.7-1.8,2-2.3l0.4,0.3l-2.2,4.2h-14.8v-0.6h0.8c1.3,0,1.8-0.7,1.8-2.3V48c0-1.7-0.6-2.3-1.8-2.3h-0.8v-0.5H163.7z"/>
	<path fill="#303030" d="M178.8,44.9l1.4,3.7l-0.5,0.2c-0.9-1-3.3-3.5-6.4-3.5c-1.5,0-3.7,1-3.7,3.1c0,2.1,2.4,3,5.2,3.6
		c2,0.5,6.1,1.4,6.1,5.3c0,2.9-2.2,4.9-5.5,4.9c-0.6,0-1.4,0-3.3-0.7c-0.5-0.2-1.3-0.5-1.7-0.5c-0.4,0-0.9,0.2-1,0.8h-0.5l-1.1-4.9
		l0.5-0.1c1.8,3.1,4.9,4.8,7.2,4.8c2.3,0,4.1-1.5,4.1-3.4c0-2.1-1.7-3-5-3.8c-2.5-0.6-6.2-1.6-6.2-5.2c0-2.8,2.5-4.4,5.2-4.4
		c0.5,0,1.2,0,2.8,0.5c0.4,0.1,0.9,0.3,1.3,0.3c0.6,0,0.8-0.4,0.8-0.6H178.8z"/>
	<path fill="#303030" d="M197.2,47.1c-1.4-1.4-1.8-1.4-2.6-1.4c-1.5,0-2.4,0.1-2.4,1.5v11.6c0,1.7,0.5,2.3,1.7,2.3h0.8v0.6h-7.3
		v-0.6h0.8c1.2,0,1.8-0.6,1.8-2.3V47.2c0-1-0.5-1.5-1.7-1.5c-1.9,0-2,0.2-4.1,2.3c-0.3,0.3-0.6,0.6-0.9,1l-0.5-0.3l1.6-3.6h13.5
		l1.6,3.6l-0.5,0.3c-0.6-0.7-0.9-1-1-1.1L197.2,47.1z"/>
</g>
</svg>
